<?xml version="1.0" encoding="UTF-8"?>
<svg width="24px" height="24px" viewBox="0 0 24 24" version="1.1" xmlns="http://www.w3.org/2000/svg" xmlns:xlink="http://www.w3.org/1999/xlink">
    <!-- Generator: Sketch 52.2 (67145) - http://www.bohemiancoding.com/sketch -->
    <title>icon/erji</title>
    <desc>Created with Sketch.</desc>
    <g id="icon/erji" stroke="none" stroke-width="1" fill="none" fill-rule="evenodd">
        <rect id="Rectangle-Copy-30" fill-rule="nonzero" x="0" y="0" width="24" height="24"></rect>
        <g id="耳机" transform="translate(2.000000, 5.000000)" fill="#697C8B">
            <path d="M17.7280357,6.43170455 L16.6640625,6.43170455 C16.2458929,2.81684091 13.4034821,0 10.0025893,0 C6.6065625,0 3.7590625,2.81954545 3.340625,6.43170455 L2.27651786,6.43170455 C1.03151786,6.43170455 0.0180357143,7.52559091 0.0180357143,8.87011364 L0.0180357143,11.5393636 C0.0180357143,12.8839091 1.03149554,13.9777955 2.27651786,13.9777955 L3.9115625,13.9777955 C4.07734375,13.9777955 4.23578125,13.9107727 4.35276786,13.7916591 C4.46973956,13.6724916 4.53548854,13.510934 4.53558036,13.3424545 L4.53497768,11.5393864 L4.53511161,10.4668182 C4.53529018,10.4605455 4.53558036,10.4543182 4.53558036,10.448 C4.53558036,10.4114091 4.53558036,7.34011364 4.53620536,7.25138636 C4.58497768,3.95359091 7.03720982,1.27070455 10.0025893,1.27070455 C12.9801786,1.27070455 15.4324107,3.96538636 15.4689955,7.27679545 C15.4695089,7.36004545 15.4695759,9.87443182 15.4695759,10.3654545 L15.4695759,13.3424318 C15.4695759,13.6935909 15.748683,13.9777727 16.0935937,13.9777727 L17.7280357,13.9777727 C18.9736607,13.9777727 19.9871205,12.8839091 19.9871205,11.5393409 L19.9871205,8.87013636 C19.9871205,7.52559091 18.973683,6.43172727 17.7280357,6.43172727 L17.7280357,6.43170455 Z M2.27651786,12.7070455 C1.71953125,12.7070455 1.26611607,12.1833636 1.26611607,11.5393182 L1.26611607,8.87015909 C1.26611607,8.22611364 1.71953125,7.70247727 2.27651786,7.70247727 L3.28754464,7.70247727 L3.28691964,8.87015909 L3.28754464,12.7070682 L2.27651786,12.7070682 L2.27651786,12.7070455 Z M18.7390625,11.5393182 C18.7390625,12.1833636 18.2856696,12.7070455 17.7280357,12.7070455 L16.7176339,12.7070455 L16.7176339,7.70245455 L17.7280134,7.70245455 C18.2856473,7.70245455 18.7390402,8.22609091 18.7390402,8.87013636 L18.7390402,11.5393182 L18.7390625,11.5393182 Z" id="Shape"></path>
        </g>
    </g>
</svg>