<?xml version="1.0" encoding="UTF-8"?>
<svg width="50px" height="50px" viewBox="0 0 50 50" version="1.1" xmlns="http://www.w3.org/2000/svg" xmlns:xlink="http://www.w3.org/1999/xlink">
    <!-- Generator: Sketch 50.2 (55047) - http://www.bohemiancoding.com/sketch -->
    <title>icon/fuchuang</title>
    <desc>Created with Sketch.</desc>
    <defs>
        <circle id="path-1" cx="25" cy="25" r="25"></circle>
        <filter x="-57.0%" y="-51.0%" width="214.0%" height="214.0%" filterUnits="objectBoundingBox" id="filter-2">
            <feOffset dx="0" dy="3" in="SourceAlpha" result="shadowOffsetOuter1"></feOffset>
            <feGaussianBlur stdDeviation="9" in="shadowOffsetOuter1" result="shadowBlurOuter1"></feGaussianBlur>
            <feColorMatrix values="0 0 0 0 0.529411765   0 0 0 0 0.611764706   0 0 0 0 0.670588235  0 0 0 0.331351902 0" type="matrix" in="shadowBlurOuter1"></feColorMatrix>
        </filter>
    </defs>
    <g id="icon/fuchuang" stroke="none" stroke-width="1" fill="none" fill-rule="evenodd">
        <g id="icon/浮窗">
            <g id="Oval-2">
                <use fill="black" fill-opacity="1" filter="url(#filter-2)" xlink:href="#path-1"></use>
                <use fill="#697C8B" fill-rule="evenodd" xlink:href="#path-1"></use>
            </g>
        </g>
        <g id="Page-1" transform="translate(25.000000, 25.000000) rotate(-180.000000) translate(-25.000000, -25.000000) translate(13.000000, 13.000000)" fill="#FFFFFF">
            <path d="M1.99435116,21.9988465 C2.0632814,22.0030326 2.10339767,22.0075674 2.14358372,22.0075674 C4.70718837,22.0074977 7.27086279,22.0054744 9.83453721,22.0104977 C9.99981628,22.0108465 10.0063047,21.9378698 10.0061651,21.8113116 C10.003793,19.2708698 10.0026767,16.7304977 10.0083279,14.1901256 C10.0087465,14.022614 9.95446744,13.9912186 9.80118837,13.9914977 C7.26660698,13.9956837 4.73202558,13.9963116 2.19744419,13.9905209 C2.02225814,13.9901023 1.98946744,14.0468233 1.98981628,14.2084047 C1.99497907,16.7371953 1.99393256,19.265986 1.99435116,21.794707 L1.99435116,21.9988465 Z M14.5844442,7.99449767 C14.4747,7.99449767 14.412607,7.99449767 14.350514,7.99449767 C13.5424674,7.99303256 12.7344209,7.99477674 11.9263744,7.98849767 C11.6640488,7.98640465 11.4403744,7.87373023 11.2697233,7.67712558 C10.9967233,7.36240465 10.9028163,7.00540465 11.0817,6.61205581 C11.2688163,6.20070698 11.5979791,5.99998605 12.0501419,6.00005581 C13.7186302,6.00033488 15.3871186,5.99963721 17.0556767,6.00040465 C17.547886,6.00068372 17.998514,6.45403256 17.9986535,6.94707907 C17.9990023,8.6272186 17.9989326,10.3073581 17.9986535,11.9874977 C17.998514,12.5463349 17.5455837,13.0032419 16.9967233,13.0000326 C16.4402581,12.9966837 16.0040721,12.5491953 16.0041419,11.9817767 C16.0042814,11.196893 16.0043512,10.4120791 16.0044209,9.62726512 L16.0044209,9.42061395 C15.9339558,9.48493953 15.891886,9.52045116 15.8530953,9.55917209 C14.6032814,10.8087767 13.3527698,12.057614 12.1074907,13.3116837 C12.0472814,13.3723116 12.0033279,13.4792651 12.0031186,13.5647302 C11.9977465,16.3145442 11.9987233,19.0643581 11.9990721,21.8142419 C11.9990721,21.8752884 12.0040953,21.9364047 12.0064674,21.9900558 L21.993607,21.9900558 L21.993607,2.00635814 L2.00418837,2.00635814 L2.00418837,11.9926605 C2.06195581,11.9955209 2.10765349,11.9998465 2.15335116,11.9998465 C4.92060698,12.0001953 7.68793256,12.0010326 10.4551884,11.9955907 C10.534514,11.9954512 10.6323977,11.946893 10.6903047,11.8894047 C11.9436767,10.6433581 13.1925837,9.39291628 14.4422581,8.14317209 C14.4785372,8.10696279 14.5132814,8.0690093 14.5844442,7.99449767 Z M23.9987233,11.9993581 C23.9987233,15.3246837 23.998793,18.6500791 23.9986535,21.9754744 C23.9985837,22.9358233 23.3819791,23.7234977 22.4462581,23.9454279 C22.2841186,23.9838698 22.1124907,23.996707 21.9452581,23.9967767 C15.3177698,23.9992186 8.6902814,23.9994977 2.06272326,23.9982419 C0.860351163,23.9980326 4.88372093e-05,23.1328465 4.88372093e-05,21.9322884 C-2.09302326e-05,15.2990093 -2.09302326e-05,8.66573023 0.000118604651,2.03231163 C0.000118604651,1.06526512 0.60597907,0.284637209 1.54456047,0.0569162791 C1.71186279,0.0163116279 1.8894907,0.00242790698 2.06230465,0.00235813953 C8.68979302,-0.000223255814 15.3172814,-0.000641860465 21.9448395,0.000823255814 C23.1359791,0.00110232558 23.9987233,0.869637209 23.9987233,2.05805581 C23.998793,5.37186977 23.9987233,8.68561395 23.9987233,11.9993581 Z" id="Fill-1"></path>
        </g>
    </g>
</svg>