<?xml version="1.0" encoding="UTF-8"?>
<svg width="24px" height="24px" viewBox="0 0 24 24" version="1.1" xmlns="http://www.w3.org/2000/svg" xmlns:xlink="http://www.w3.org/1999/xlink">
    <!-- Generator: Sketch 52.2 (67145) - http://www.bohemiancoding.com/sketch -->
    <title>icon/shangchuan</title>
    <desc>Created with Sketch.</desc>
    <g id="icon/shangchuan" stroke="none" stroke-width="1" fill="none" fill-rule="evenodd">
        <rect id="Rectangle" fill-rule="nonzero" x="0" y="0" width="24" height="24"></rect>
        <g id="上传-2" transform="translate(5.000000, 5.000000)" fill="#697C8B">
            <path d="M6.83937057,1.91242514 L2.4266107,6.22300922 C2.17238571,6.47134773 1.76016962,6.47134773 1.50594464,6.22300922 C1.25168547,5.97463732 1.25168547,5.57196595 1.50594464,5.32362744 L6.56971054,0.377127807 C7.07817762,-0.119582599 7.90259268,-0.119582599 8.41105976,0.377127807 L13.4748428,5.32362744 C13.7290678,5.57196595 13.7290678,5.97463732 13.4748428,6.22300922 C13.2206178,6.47134773 12.8083846,6.47134773 12.5541254,6.22300922 L8.14139975,1.91242514 L8.14139975,10.1211373 C8.14139975,10.472331 7.84989481,10.7570862 7.4903937,10.7570862 C7.13084131,10.7570862 6.83938766,10.472331 6.83938766,10.1211373 L6.83938766,1.91242514 L6.83937057,1.91242514 Z M13.6846942,10.1797614 C13.6846942,9.82851764 13.9761478,9.54381248 14.3357173,9.54381247 C14.6952868,9.54381245 14.9867405,9.82851762 14.9867405,10.1797614 L14.9867405,12.0876249 C14.9867405,13.1412895 14.1123282,13.9954551 13.033671,13.9954551 L1.96627767,13.9954551 C0.887620507,13.9954551 0.0132082517,13.1412895 0.0132082517,12.0876249 L0.0132082517,10.1797614 C0.0132082517,9.82851764 0.304678998,9.54381248 0.664231403,9.54381247 C1.0237667,9.54381247 1.31525454,9.82851762 1.31525454,10.1797614 L1.31525454,12.0876249 C1.31525454,12.4388353 1.60672528,12.7235739 1.96627767,12.7235739 L13.033671,12.7235739 C13.3932063,12.7235739 13.6846942,12.4388353 13.6846942,12.0876249 L13.6846942,10.1797614 Z" id="Shape"></path>
        </g>
    </g>
</svg>