<?xml version="1.0" encoding="UTF-8"?>
<svg width="125px" height="125px" viewBox="0 0 125 125" version="1.1" xmlns="http://www.w3.org/2000/svg" xmlns:xlink="http://www.w3.org/1999/xlink">
    <!-- Generator: Sketch 53.2 (72643) - https://sketchapp.com -->
    <title>icon/tongjifenxi</title>
    <desc>Created with Sketch.</desc>
    <defs>
        <path d="M87.9010465,47.4130382 L86.4963709,42.0846864 L102.370309,51.3484656 L86.4963709,60.6122449 L87.7547154,55.8389704 L63.7132529,52.9206853 L42.9947778,38.9488928 L19.533935,45.7775696 L12.374433,45.7775696 L43.4359512,32.5510204 L66.8967941,45.7775696 L87.9010465,47.4130382 Z" id="path-1"></path>
        <filter x="-6.7%" y="-21.4%" width="120.0%" height="164.1%" filterUnits="objectBoundingBox" id="filter-2">
            <feOffset dx="3" dy="3" in="SourceAlpha" result="shadowOffsetOuter1"></feOffset>
            <feGaussianBlur stdDeviation="2.5" in="shadowOffsetOuter1" result="shadowBlurOuter1"></feGaussianBlur>
            <feColorMatrix values="0 0 0 0 0.8   0 0 0 0 0.8   0 0 0 0 0.8  0 0 0 1 0" type="matrix" in="shadowBlurOuter1"></feColorMatrix>
        </filter>
        <rect id="path-3" x="13.4993814" y="59.4897959" width="10.1245361" height="49.3877551"></rect>
        <filter x="-59.3%" y="-18.2%" width="277.8%" height="136.4%" filterUnits="objectBoundingBox" id="filter-4">
            <feOffset dx="3" dy="0" in="SourceAlpha" result="shadowOffsetOuter1"></feOffset>
            <feGaussianBlur stdDeviation="2.5" in="shadowOffsetOuter1" result="shadowBlurOuter1"></feGaussianBlur>
            <feColorMatrix values="0 0 0 0 0   0 0 0 0 0   0 0 0 0 0  0 0 0 0.159873188 0" type="matrix" in="shadowBlurOuter1"></feColorMatrix>
        </filter>
        <rect id="path-5" x="37.123299" y="47.1428571" width="10.1245361" height="61.7346939"></rect>
        <filter x="-59.3%" y="-14.6%" width="277.8%" height="129.2%" filterUnits="objectBoundingBox" id="filter-6">
            <feOffset dx="3" dy="0" in="SourceAlpha" result="shadowOffsetOuter1"></feOffset>
            <feGaussianBlur stdDeviation="2.5" in="shadowOffsetOuter1" result="shadowBlurOuter1"></feGaussianBlur>
            <feColorMatrix values="0 0 0 0 0   0 0 0 0 0   0 0 0 0 0  0 0 0 0.159873188 0" type="matrix" in="shadowBlurOuter1"></feColorMatrix>
        </filter>
        <rect id="path-7" x="84.371134" y="68.4693878" width="10.1245361" height="40.4081633"></rect>
        <filter x="-59.3%" y="-22.3%" width="277.8%" height="144.5%" filterUnits="objectBoundingBox" id="filter-8">
            <feOffset dx="3" dy="0" in="SourceAlpha" result="shadowOffsetOuter1"></feOffset>
            <feGaussianBlur stdDeviation="2.5" in="shadowOffsetOuter1" result="shadowBlurOuter1"></feGaussianBlur>
            <feColorMatrix values="0 0 0 0 0   0 0 0 0 0   0 0 0 0 0  0 0 0 0.159873188 0" type="matrix" in="shadowBlurOuter1"></feColorMatrix>
        </filter>
        <rect id="path-9" x="60.7472165" y="58.3673469" width="10.1245361" height="50.5102041"></rect>
        <filter x="-59.3%" y="-17.8%" width="277.8%" height="135.6%" filterUnits="objectBoundingBox" id="filter-10">
            <feOffset dx="3" dy="0" in="SourceAlpha" result="shadowOffsetOuter1"></feOffset>
            <feGaussianBlur stdDeviation="2.5" in="shadowOffsetOuter1" result="shadowBlurOuter1"></feGaussianBlur>
            <feColorMatrix values="0 0 0 0 0   0 0 0 0 0   0 0 0 0 0  0 0 0 0.159873188 0" type="matrix" in="shadowBlurOuter1"></feColorMatrix>
        </filter>
    </defs>
    <g id="icon/tongjifenxi" stroke="none" stroke-width="1" fill="none" fill-rule="evenodd">
        <g transform="translate(8.000000, 8.000000)">
            <rect id="Rectangle-61-Copy-11" x="0" y="0" width="110" height="110"></rect>
            <g id="Group-6">
                <g id="Group-7" transform="translate(34.873402, 5.612245)"></g>
                <g id="Group-24">
                    <path d="M4.44398167,0 L104.676018,0 C107.130362,8.26872349e-15 109.12,1.98963837 109.12,4.44398167 L109.12,106.632653 C109.12,107.872476 108.114925,108.877551 106.875102,108.877551 L2.24489796,108.877551 C1.00507505,108.877551 1.92819135e-15,107.872476 1.77635684e-15,106.632653 L0,4.44398167 C-3.00570368e-16,1.98963837 1.98963837,-1.32550129e-15 4.44398167,-1.77635684e-15 Z" id="Rectangle-32" fill="#E6E6E6"></path>
                    <path d="M2.24489796,0 L106.875102,0 C108.114925,-2.27751773e-16 109.12,1.00507505 109.12,2.24489796 L109.12,25.8163265 L0,25.8163265 L0,2.24489796 C-1.51834516e-16,1.00507505 1.00507505,-1.54860507e-15 2.24489796,-1.77635684e-15 Z" id="Rectangle-32" fill="#7B8E9C"></path>
                    <path d="M39.363198,10.1020408 L69.756802,10.1020408 C72.2364478,10.1020408 74.2465979,12.1121909 74.2465979,14.5918367 L74.2465979,14.5918367 C74.2465979,17.0714826 72.2364478,19.0816327 69.756802,19.0816327 L39.363198,19.0816327 C36.8835522,19.0816327 34.8734021,17.0714826 34.8734021,14.5918367 L34.8734021,14.5918367 C34.8734021,12.1121909 36.8835522,10.1020408 39.363198,10.1020408 Z" id="Rectangle-33" fill="#FFFFFF"></path>
                    <ellipse id="Oval-8" fill="#FFFFFF" cx="54.56" cy="11.2244898" rx="5.79017586" ry="5.6122449"></ellipse>
                    <polygon id="Path-9" fill="#DADADA" points="23.6239175 60.0510204 37.123299 71.2755102 37.123299 108.883521 23.6101616 108.883521"></polygon>
                    <polygon id="Path-10" fill="#DADADA" points="47.2478351 47.7040816 61.1953028 59.3756621 61.1953028 108.887819 47.2478305 108.887819"></polygon>
                    <polygon id="Path-11" fill="#DADADA" points="70.8717526 58.3673469 84.371134 69.3148215 84.371134 108.877551 70.8717526 108.877551"></polygon>
                    <path d="" id="Path-12" stroke="#979797" stroke-width="1.12244898"></path>
                    <path d="M94.4956701,69.5918367 L109.12,81.9387755 L109.12,106.632653 C109.12,107.872476 108.114925,108.877551 106.875102,108.877551 L94.4828932,108.877551 L94.4956701,69.5918367 Z" id="Path-13" fill="#DADADA"></path>
                    <g id="Combined-Shape" fill-rule="nonzero">
                        <use fill="black" fill-opacity="1" filter="url(#filter-2)" xlink:href="#path-1"></use>
                        <use fill="#9ECD68" xlink:href="#path-1"></use>
                    </g>
                    <g id="Rectangle-34">
                        <use fill="black" fill-opacity="1" filter="url(#filter-4)" xlink:href="#path-3"></use>
                        <use fill="#697985" fill-rule="evenodd" xlink:href="#path-3"></use>
                    </g>
                    <g id="Rectangle-34-Copy">
                        <use fill="black" fill-opacity="1" filter="url(#filter-6)" xlink:href="#path-5"></use>
                        <use fill="#879CAB" fill-rule="evenodd" xlink:href="#path-5"></use>
                    </g>
                    <g id="Rectangle-34-Copy-3">
                        <use fill="black" fill-opacity="1" filter="url(#filter-8)" xlink:href="#path-7"></use>
                        <use fill="#879CAB" fill-rule="evenodd" xlink:href="#path-7"></use>
                    </g>
                    <g id="Rectangle-34-Copy-2">
                        <use fill="black" fill-opacity="1" filter="url(#filter-10)" xlink:href="#path-9"></use>
                        <use fill="#697985" fill-rule="evenodd" xlink:href="#path-9"></use>
                    </g>
                </g>
            </g>
        </g>
    </g>
</svg>