<?xml version="1.0" encoding="UTF-8"?>
<svg width="125px" height="125px" viewBox="0 0 125 125" version="1.1" xmlns="http://www.w3.org/2000/svg" xmlns:xlink="http://www.w3.org/1999/xlink">
    <!-- Generator: Sketch 53.2 (72643) - https://sketchapp.com -->
    <title>icon/paibanguanli</title>
    <desc>Created with Sketch.</desc>
    <defs>
        <path d="M53.4772995,74.4406897 L27.3584906,74.4406897 C27.6577256,71.3436754 28.5661039,68.4306435 30.0836527,65.7015065 C31.6012016,62.9723696 34.4474536,59.7513519 38.6224941,56.0383568 C41.1731161,53.7626502 42.8046348,52.0345079 43.5170991,50.8538781 C44.2295633,49.6732483 44.5857901,48.5525224 44.5857901,47.4916666 C44.5857901,46.345258 44.2331256,45.3656922 43.527786,44.5529398 C42.8224464,43.7401874 41.9354417,43.3338173 40.8667453,43.3338173 C39.755301,43.3338173 38.8469227,43.7530202 38.1415831,44.5914384 C37.4362435,45.4298567 36.9624619,46.9098993 36.7202241,49.0316108 L27.9997052,48.1846415 C28.341688,45.2416224 28.9686472,42.9445619 29.8806014,41.2933913 C30.7925557,39.6422207 32.0785343,38.376057 33.7385761,37.4948623 C35.3986178,36.6136677 37.6962805,36.1730769 40.6316333,36.1730769 C43.6952295,36.1730769 46.0783867,36.5922798 47.7811763,37.430698 C49.4839659,38.2691162 50.8233786,39.5566678 51.7994546,41.2933913 C52.7755306,43.0301148 53.2635613,44.9764137 53.2635613,47.1323463 C53.2635613,49.4251636 52.7042853,51.6152845 51.5857164,53.7027748 C50.4671475,55.7902651 48.4330926,58.083048 45.4834906,60.5811921 C43.7308285,62.0355911 42.5588424,63.0536552 41.9674971,63.6354148 C41.3761517,64.2171744 40.6815095,64.9785836 39.8835495,65.9196653 L53.4772995,65.9196653 L53.4772995,74.4406897 Z M62.4329304,54.2160895 C61.0649991,53.3434501 60.0675641,52.3681619 59.4405955,51.2901956 C58.5856384,49.818686 58.1581663,48.1247644 58.1581663,46.2083798 C58.1581663,43.0600338 59.3907109,40.4849306 61.8558373,38.4829932 C63.7794908,36.9430413 66.32295,36.1730769 69.4862913,36.1730769 C73.6755811,36.1730769 76.7711918,37.1312548 78.7732164,39.0476394 C80.7752409,40.9640239 81.7762382,43.376579 81.7762382,46.285377 C81.7762382,47.9793241 81.3772642,49.5620287 80.5793042,51.0335382 C79.9808343,52.1286151 79.0403956,53.189455 77.7579599,54.2160895 C79.4536248,55.1913924 80.7182299,56.4832215 81.5518131,58.0916157 C82.3853963,59.7000099 82.8021816,61.4794832 82.8021816,63.4300889 C82.8021816,65.3122523 82.4423926,67.0703376 81.7228037,68.7043977 C81.0032148,70.3384577 80.1197723,71.6003438 79.0724499,72.4900938 C78.0251274,73.3798438 76.7213374,74.0343135 75.1610407,74.4535226 C73.600744,74.8727317 71.9371649,75.0823331 70.1702535,75.0823331 C66.8501701,75.0823331 64.3138354,74.6117994 62.5611733,73.6707177 C60.8085113,72.7296359 59.4762231,71.3437 58.5642689,69.5128684 C57.6523146,67.6820367 57.1963443,65.6373535 57.1963443,63.3787574 C57.1963443,61.171493 57.6238165,59.3021906 58.4787736,57.770794 C59.3337307,56.2393974 60.6517698,55.0545078 62.4329304,54.2160895 Z M66.3443396,46.8243575 C66.3443396,48.1247613 66.6827551,49.1727684 67.3595961,49.9684102 C68.0364371,50.764052 68.9376909,51.1618669 70.0633844,51.1618669 C71.0608344,51.1618669 71.880156,50.7683296 72.5213738,49.9812431 C73.1625916,49.1941565 73.4831958,48.1760925 73.4831958,46.9270204 C73.4831958,45.6266166 73.1483426,44.5700544 72.4786262,43.757302 C71.8089098,42.9445496 70.9539655,42.5381795 69.9137677,42.5381795 C68.8593206,42.5381795 68.000814,42.9359945 67.3382223,43.7316363 C66.6756305,44.5272781 66.3443396,45.5581748 66.3443396,46.8243575 Z M65.8741156,63.0194371 C65.8741156,64.679163 66.2944632,66.0351558 67.135171,67.0874563 C67.9758788,68.1397567 68.9376911,68.6658991 70.0206368,68.6658991 C71.0608346,68.6658991 71.9941488,68.1312016 72.8206073,67.0617906 C73.6470658,65.9923795 74.0602889,64.6363867 74.0602889,62.9937714 C74.0602889,61.3340454 73.6435036,59.973775 72.8099204,58.9129193 C71.9763372,57.8520635 71.0109626,57.3216436 69.9137677,57.3216436 C68.830822,57.3216436 67.886821,57.8349532 67.0817364,58.8615878 C66.2766518,59.8882224 65.8741156,61.2741583 65.8741156,63.0194371 Z" id="path-1"></path>
        <filter x="-11.7%" y="-16.7%" width="130.7%" height="143.7%" filterUnits="objectBoundingBox" id="filter-2">
            <feOffset dx="2" dy="2" in="SourceAlpha" result="shadowOffsetOuter1"></feOffset>
            <feGaussianBlur stdDeviation="2.5" in="shadowOffsetOuter1" result="shadowBlurOuter1"></feGaussianBlur>
            <feColorMatrix values="0 0 0 0 0   0 0 0 0 0   0 0 0 0 0  0 0 0 0.114243659 0" type="matrix" in="shadowBlurOuter1"></feColorMatrix>
        </filter>
    </defs>
    <g id="icon/paibanguanli" stroke="none" stroke-width="1" fill="none" fill-rule="evenodd">
        <g id="Group-36">
            <g>
                <rect id="Rectangle-61-Copy-9" x="0" y="0" width="125" height="125"></rect>
                <g id="Group" transform="translate(5.000000, 6.000000)">
                    <rect id="Rectangle-59" fill="#E6E6E6" x="4.37735849" y="6.57692308" width="107.245283" height="107.423077" rx="2.18867925"></rect>
                    <path d="M4.37735849,55.9038462 L111.622642,55.9038462 L115.772202,99.5464621 C115.886617,100.749809 115.003863,101.818066 113.800516,101.932481 C113.731654,101.939028 113.662521,101.942308 113.593349,101.942308 L2.40665079,101.942308 C1.19787662,101.942308 0.217971543,100.962403 0.217971543,99.7536284 C0.217971543,99.6844565 0.221250749,99.6153235 0.22779812,99.5464621 L4.37735849,55.9038462 Z" id="Rectangle-11" fill="#879CAB"></path>
                    <path d="M6.56603774,5.48076923 L109.433962,5.48076923 C110.642736,5.48076923 111.622642,6.46067431 111.622642,7.66944848 L111.622642,55.9038462 L4.37735849,55.9038462 L4.37735849,7.66944848 C4.37735849,6.46067431 5.35726357,5.48076923 6.56603774,5.48076923 Z" id="Rectangle-12" fill="#879CAB"></path>
                    <g id="28">
                        <use fill="black" fill-opacity="1" filter="url(#filter-2)" xlink:href="#path-1"></use>
                        <use fill="#FFFFFF" fill-rule="evenodd" xlink:href="#path-1"></use>
                    </g>
                    <path d="M6.56603774,5.48076923 L109.433962,5.48076923 C110.642736,5.48076923 111.622642,6.46067431 111.622642,7.66944848 L111.622642,55.9038462 L4.37735849,55.9038462 L4.37735849,7.66944848 C4.37735849,6.46067431 5.35726357,5.48076923 6.56603774,5.48076923 Z" id="Rectangle-12" fill-opacity="0.190274004" fill="#000000"></path>
                    <rect id="Rectangle-60" fill="#9ECD68" x="20.7924528" y="0" width="7.66037736" height="16.4423077" rx="2.18867925"></rect>
                    <rect id="Rectangle-60-Copy" fill="#9ECD68" x="87.5471698" y="0" width="7.66037736" height="16.4423077" rx="2.18867925"></rect>
                    <path d="M4.37735849,55.9038462 L50.360788,101.963508 L113.593454,101.963508 C114.802228,101.963508 115.782133,100.983603 115.782133,99.7748289 C115.782133,99.7056887 115.778857,99.6365872 115.772316,99.5677571 L111.622642,55.9038462 L4.37735849,55.9038462 Z" id="Path-30" fill-opacity="0.0500000007" fill="#000000"></path>
                </g>
            </g>
        </g>
    </g>
</svg>