<?xml version="1.0" encoding="UTF-8"?>
<svg width="125px" height="125px" viewBox="0 0 125 125" version="1.1" xmlns="http://www.w3.org/2000/svg" xmlns:xlink="http://www.w3.org/1999/xlink">
    <!-- Generator: Sketch 53.2 (72643) - https://sketchapp.com -->
    <title>icon/jiaohaoguanli</title>
    <desc>Created with Sketch.</desc>
    <defs>
        <path d="M83.0688386,38.9832164 L79.9919156,38.9832164 C79.9919156,35.2997172 77.0071472,32.3136512 73.3252489,32.3136512 L73.3252489,29.2353903 C78.7064849,29.2353903 83.0688386,33.5996407 83.0688386,38.9832164 Z" id="path-1"></path>
        <filter x="-51.3%" y="-51.3%" width="243.7%" height="243.6%" filterUnits="objectBoundingBox" id="filter-2">
            <feOffset dx="2" dy="2" in="SourceAlpha" result="shadowOffsetOuter1"></feOffset>
            <feGaussianBlur stdDeviation="2" in="shadowOffsetOuter1" result="shadowBlurOuter1"></feGaussianBlur>
            <feColorMatrix values="0 0 0 0 0   0 0 0 0 0   0 0 0 0 0  0 0 0 0.192057292 0" type="matrix" in="shadowBlurOuter1"></feColorMatrix>
        </filter>
        <path d="M89.2226848,37.9571294 L86.1457617,37.9571294 C86.1457617,31.4401694 80.8650177,26.1571294 74.3508899,26.1571294 L74.3508899,23.0788686 C82.5643554,23.0788686 89.2226848,29.7400929 89.2226848,37.9571294 Z" id="path-3"></path>
        <filter x="-33.6%" y="-33.6%" width="194.1%" height="194.1%" filterUnits="objectBoundingBox" id="filter-4">
            <feOffset dx="2" dy="2" in="SourceAlpha" result="shadowOffsetOuter1"></feOffset>
            <feGaussianBlur stdDeviation="2" in="shadowOffsetOuter1" result="shadowBlurOuter1"></feGaussianBlur>
            <feColorMatrix values="0 0 0 0 0   0 0 0 0 0   0 0 0 0 0  0 0 0 0.192057292 0" type="matrix" in="shadowBlurOuter1"></feColorMatrix>
        </filter>
        <filter x="-14.8%" y="-16.5%" width="129.6%" height="133.1%" filterUnits="objectBoundingBox" id="filter-5">
            <feOffset dx="2" dy="2" in="SourceAlpha" result="shadowOffsetOuter1"></feOffset>
            <feGaussianBlur stdDeviation="2" in="shadowOffsetOuter1" result="shadowBlurOuter1"></feGaussianBlur>
            <feColorMatrix values="0 0 0 0 0   0 0 0 0 0   0 0 0 0 0  0 0 0 0.113026495 0" type="matrix" in="shadowBlurOuter1" result="shadowMatrixOuter1"></feColorMatrix>
            <feMerge>
                <feMergeNode in="shadowMatrixOuter1"></feMergeNode>
                <feMergeNode in="SourceGraphic"></feMergeNode>
            </feMerge>
        </filter>
    </defs>
    <g id="icon/jiaohaoguanli" stroke="none" stroke-width="1" fill="none" fill-rule="evenodd">
        <g>
            <rect id="Rectangle-61" x="0" y="0" width="125" height="125"></rect>
            <g id="Group-17" transform="translate(3.000000, 4.000000)">
                <rect id="Rectangle-54" fill="#E6E6E6" x="16.4102564" y="6.15652174" width="88.2051282" height="99.5304348" rx="2.05128205"></rect>
                <rect id="Rectangle-55" fill="#FFFFFF" x="26.6666667" y="16.4173913" width="67.6923077" height="85.1652174"></rect>
                <polygon id="Path-27" fill-opacity="0.0299999993" fill="#000000" points="45.6410256 16.4173913 83.5897436 106.2 26.1538462 106.2 26.1538462 16.4173913"></polygon>
                <g id="Oval-15" fill-rule="nonzero">
                    <use fill="black" fill-opacity="1" filter="url(#filter-2)" xlink:href="#path-1"></use>
                    <use fill="#9ECD68" xlink:href="#path-1"></use>
                </g>
                <g id="Oval-15-Copy" fill-rule="nonzero">
                    <use fill="black" fill-opacity="1" filter="url(#filter-4)" xlink:href="#path-3"></use>
                    <use fill="#9ECD68" xlink:href="#path-3"></use>
                </g>
                <polygon id="Path-29" fill-opacity="0.0700000003" fill="#000000" points="67.2794951 117.587008 34.3589744 84.6521739 88.7179487 57.4608696 104.377878 73.127608 104.377878 117.246065"></polygon>
                <path d="M30.8013746,74.9043478 C35.9865928,85.8242351 47.1120187,93.373913 60,93.373913 C72.8879813,93.373913 84.0134072,85.8242351 89.1986254,74.9043478 L117.948718,74.9043478 C119.08161,74.9043478 120,75.8227381 120,76.9556299 L120,115.948718 C120,117.08161 119.08161,118 117.948718,118 L2.05128205,118 C0.918390257,118 1.38739231e-16,117.08161 0,115.948718 L0,76.9556299 C-1.38739231e-16,75.8227381 0.918390257,74.9043478 2.05128205,74.9043478 L30.8013746,74.9043478 Z" id="Combined-Shape" fill="#879CAB"></path>
                <rect id="Rectangle-58" fill="#FFFFFF" x="0" y="87.2173913" width="10.2564103" height="4.10434783"></rect>
                <rect id="Rectangle-58-Copy-2" fill="#FFFFFF" x="109.74359" y="87.2173913" width="10.2564103" height="4.10434783"></rect>
                <rect id="Rectangle-58-Copy" fill="#FFFFFF" x="0" y="101.582609" width="10.2564103" height="4.10434783"></rect>
                <rect id="Rectangle-58-Copy-3" fill="#FFFFFF" x="109.74359" y="101.582609" width="10.2564103" height="4.10434783"></rect>
                <g id="Group-15" filter="url(#filter-5)" transform="translate(59.220631, 54.540964) rotate(-45.000000) translate(-59.220631, -54.540964) translate(18.707811, 18.114877)" fill="#697985">
                    <path d="M13.468439,29.7565217 L13.468439,29.7565217 L13.468439,43.6336399 L0.664358461,43.6336399 L0.664358461,42.5606022 C0.664358461,35.4891038 6.39694056,29.7565217 13.468439,29.7565217 Z" id="Rectangle-56"></path>
                    <rect id="Rectangle-57" x="1.63178488" y="46.2922212" width="11.9584166" height="17.2807785"></rect>
                    <path d="M19.8736501,49.2715162 L36.9881221,12.3624898 C37.4646948,11.3347144 38.6842099,10.8878763 39.7119853,11.3644489 C39.9249283,11.4631892 40.1193447,11.5977446 40.2867679,11.7622554 L68.9904253,39.9666061 C69.7984983,40.7606224 69.8098934,42.0593724 69.0158771,42.8674453 C68.8586734,43.027432 68.6762946,43.1605528 68.4760025,43.2615073 L32.2222416,61.53471 C31.4314776,61.9332836 30.4742102,61.7794169 29.84818,61.1531145 L20.2838114,51.5845875 C19.6754241,50.9759356 19.511632,50.0522436 19.8736501,49.2715162 Z" id="Path-28" transform="translate(44.643315, 36.463866) rotate(-315.000000) translate(-44.643315, -36.463866) "></path>
                </g>
            </g>
        </g>
    </g>
</svg>