<?xml version="1.0" encoding="UTF-8"?>
<svg width="125px" height="125px" viewBox="0 0 125 125" version="1.1" xmlns="http://www.w3.org/2000/svg" xmlns:xlink="http://www.w3.org/1999/xlink">
    <!-- Generator: Sketch 53.2 (72643) - https://sketchapp.com -->
    <title>icon/chengxupeizhi</title>
    <desc>Created with Sketch.</desc>
    <defs>
        <path d="M69.6038866,31.9562781 C66.4870386,33.8023513 63.7903092,36.4482301 61.8528326,39.8040381 C58.9054936,44.9089789 58.1817271,50.8372592 59.6967549,56.4301433 L36.1244289,62.6772292 C32.9351369,50.9036232 34.4707301,38.3257737 40.6761484,27.5776738 C44.5992351,20.7826884 49.996867,15.3664569 56.2373259,11.4963959 L49.2341673,0.776824623 L82.7198963,7.89443602 L75.6411408,41.1973621 L69.6038866,31.9562781 Z" id="path-1"></path>
        <filter x="-10.4%" y="-8.0%" width="129.2%" height="122.4%" filterUnits="objectBoundingBox" id="filter-2">
            <feOffset dx="2" dy="2" in="SourceAlpha" result="shadowOffsetOuter1"></feOffset>
            <feGaussianBlur stdDeviation="2" in="shadowOffsetOuter1" result="shadowBlurOuter1"></feGaussianBlur>
            <feColorMatrix values="0 0 0 0 0   0 0 0 0 0   0 0 0 0 0  0 0 0 0.081861413 0" type="matrix" in="shadowBlurOuter1"></feColorMatrix>
        </filter>
        <path d="M36.1206909,39.1784888 C33.0038429,41.024562 30.3071135,43.6704408 28.3696369,47.0262488 C25.4222979,52.1311896 24.6985314,58.0594699 26.2135592,63.652354 L2.64123317,69.8994399 C-0.5480588,58.1258339 0.987534384,45.5479844 7.19295274,34.7998845 C11.1160394,28.0048991 16.5136714,22.5886676 22.7541302,18.7186066 L15.7509717,7.99903532 L49.2367006,15.1166467 L42.1579451,48.4195728 L36.1206909,39.1784888 Z" id="path-3"></path>
        <filter x="-10.4%" y="-8.0%" width="129.2%" height="122.4%" filterUnits="objectBoundingBox" id="filter-4">
            <feOffset dx="2" dy="2" in="SourceAlpha" result="shadowOffsetOuter1"></feOffset>
            <feGaussianBlur stdDeviation="2" in="shadowOffsetOuter1" result="shadowBlurOuter1"></feGaussianBlur>
            <feColorMatrix values="0 0 0 0 0   0 0 0 0 0   0 0 0 0 0  0 0 0 0.081861413 0" type="matrix" in="shadowBlurOuter1"></feColorMatrix>
        </filter>
        <path d="M57.6385592,63.9771438 L75.1592836,72.41112 C76.1340531,71.3668598 77.5209498,70.7142857 79.0598291,70.7142857 C79.5346439,70.7142857 79.99499,70.7764111 80.4332258,70.8929987 L95.2784995,47.3861217 C94.4915512,46.4530229 94.017094,45.2463632 94.017094,43.9285714 C94.017094,40.9699031 96.4087353,38.5714286 99.3589744,38.5714286 C102.309213,38.5714286 104.700855,40.9699031 104.700855,43.9285714 C104.700855,44.613831 104.572559,45.2690398 104.338741,45.8713582 L113.914226,55.2853614 C114.669364,54.8755408 115.534082,54.6428571 116.452991,54.6428571 C119.403231,54.6428571 121.794872,57.0413317 121.794872,60 C121.794872,62.9586683 119.403231,65.3571429 116.452991,65.3571429 C113.502752,65.3571429 111.111111,62.9586683 111.111111,60 C111.111111,59.1714555 111.298669,58.3868426 111.633528,57.6865325 L101.552901,48.8144981 C100.883582,49.1172342 100.140897,49.2857143 99.3589744,49.2857143 C98.8841595,49.2857143 98.4238134,49.2235889 97.9855776,49.1070013 L83.1403039,72.6138783 C83.9272522,73.5469771 84.4017094,74.7536368 84.4017094,76.0714286 C84.4017094,79.0300969 82.0100681,81.4285714 79.0598291,81.4285714 C76.10959,81.4285714 73.7179487,79.0300969 73.7179487,76.0714286 C73.7179487,75.812439 73.7362747,75.557742 73.7716972,75.3085705 L56.2509728,66.8745943 C55.2762033,67.9188545 53.8893066,68.5714286 52.3504274,68.5714286 C49.4001883,68.5714286 47.008547,66.172954 47.008547,63.2142857 C47.008547,60.2556174 49.4001883,57.8571429 52.3504274,57.8571429 C55.3006664,57.8571429 57.6923077,60.2556174 57.6923077,63.2142857 C57.6923077,63.4732753 57.6739817,63.7279723 57.6385592,63.9771438 Z" id="path-5"></path>
        <filter x="-6.7%" y="-16.3%" width="118.7%" height="132.7%" filterUnits="objectBoundingBox" id="filter-6">
            <feOffset dx="2" dy="0" in="SourceAlpha" result="shadowOffsetOuter1"></feOffset>
            <feGaussianBlur stdDeviation="2" in="shadowOffsetOuter1" result="shadowBlurOuter1"></feGaussianBlur>
            <feColorMatrix values="0 0 0 0 0   0 0 0 0 0   0 0 0 0 0  0 0 0 0.102213542 0" type="matrix" in="shadowBlurOuter1"></feColorMatrix>
        </filter>
        <path d="M27.3339816,65.8145503 C30.3908517,74.1465336 38.3618705,80.088085 47.7136744,80.088085 C53.5617267,80.088085 59.0141798,77.7703028 63.0679258,73.696186 L80.1282051,90.8421963 C71.5946459,99.4186382 60.0263442,104.336205 47.7136744,104.336205 C31.7648855,104.336205 17.7183993,96.1505509 9.50666489,83.7314524 L1.06837607,92.2121452 L1.06837607,58.2647768 L34.8460059,58.2647768 L27.3339816,65.8145503 Z" id="path-7"></path>
        <filter x="-6.3%" y="-10.9%" width="117.7%" height="130.4%" filterUnits="objectBoundingBox" id="filter-8">
            <feOffset dx="2" dy="2" in="SourceAlpha" result="shadowOffsetOuter1"></feOffset>
            <feGaussianBlur stdDeviation="2" in="shadowOffsetOuter1" result="shadowBlurOuter1"></feGaussianBlur>
            <feColorMatrix values="0 0 0 0 0   0 0 0 0 0   0 0 0 0 0  0 0 0 0.081861413 0" type="matrix" in="shadowBlurOuter1"></feColorMatrix>
        </filter>
    </defs>
    <g id="icon/chengxupeizhi" stroke="none" stroke-width="1" fill="none" fill-rule="evenodd">
        <g>
            <rect id="Rectangle-61-Copy-7" x="0" y="0" width="125" height="125"></rect>
            <g id="Group-20" transform="translate(0.000000, 10.000000)">
                <g id="Group-8">
                    <path d="M44.8717949,11.7857143 L121.794872,11.7857143 C122.974967,11.7857143 123.931624,12.7423708 123.931624,13.9224664 L123.931624,101.791819 C123.931624,102.971915 122.974967,103.928571 121.794872,103.928571 L44.8717949,103.928571 L22.9700855,57.8571429 L44.8717949,11.7857143 Z" id="Rectangle-36" fill="#F2F2F2"></path>
                    <path d="M44.3376068,36.4285714 L121.816083,37.1977344 C122.987846,37.209367 123.931624,38.1625608 123.931624,39.3343812 L123.931624,102.327534 C123.931624,103.507629 122.974967,104.464286 121.794872,104.464286 L44.3376068,104.464286 C33.8281199,94.465582 27.5959262,86.4298677 25.6410256,80.3571429 C23.6861251,74.284418 22.617749,59.6415609 22.4358974,36.4285714 L44.3376068,36.4285714 Z" id="Rectangle-36" fill="#E3E3E3"></path>
                    <path d="M24.6556987,72.8571429 L121.877921,72.8571429 C123.058017,72.8571429 124.014673,73.8137994 124.014673,74.993895 L124.014673,102.331058 C124.014673,103.511153 123.058017,104.46781 121.877921,104.46781 L52.9356457,104.46781 C40.9728475,93.9097133 33.1487625,85.8728243 29.463391,80.3571429 C25.7780194,74.8414614 24.1754553,72.3414614 24.6556987,72.8571429 Z" id="Path-17" fill="#D0D1D2"></path>
                    <g id="Combined-Shape-Copy-4" fill-rule="nonzero" transform="translate(58.601419, 31.742551) rotate(-285.000000) translate(-58.601419, -31.742551) ">
                        <use fill="black" fill-opacity="1" filter="url(#filter-2)" xlink:href="#path-1"></use>
                        <use fill="#9DB5C7" xlink:href="#path-1"></use>
                    </g>
                    <g id="Combined-Shape" fill-rule="nonzero">
                        <use fill="black" fill-opacity="1" filter="url(#filter-4)" xlink:href="#path-3"></use>
                        <use fill="#879CAB" xlink:href="#path-3"></use>
                    </g>
                    <path d="M48.0769231,66.4285714 L85.8497212,104.309292 L123.931624,104.309292 L123.931624,60.5322964 L119.65812,55.7142857 C116.838682,57.3786027 114.879993,57.914317 113.782051,57.3214286 C112.68411,56.7285402 107.698355,52.4428259 98.8247863,44.4642857 L79.0598291,75.5357143 L56.0897436,64.8214286 L48.0769231,66.4285714 Z" id="Path-18" fill-opacity="0.0700000003" fill="#000000"></path>
                    <g id="Combined-Shape">
                        <use fill="black" fill-opacity="1" filter="url(#filter-6)" xlink:href="#path-5"></use>
                        <use fill="#9BC967" fill-rule="evenodd" xlink:href="#path-5"></use>
                    </g>
                    <g id="Combined-Shape" fill-rule="nonzero">
                        <use fill="black" fill-opacity="1" filter="url(#filter-8)" xlink:href="#path-7"></use>
                        <use fill="#697985" xlink:href="#path-7"></use>
                    </g>
                </g>
            </g>
        </g>
    </g>
</svg>