<?xml version="1.0" encoding="UTF-8"?>
<svg width="150px" height="30px" viewBox="0 0 150 30" version="1.1" xmlns="http://www.w3.org/2000/svg" xmlns:xlink="http://www.w3.org/1999/xlink">
    <!-- Generator: Sketch 53.2 (72643) - https://sketchapp.com -->
    <title>icon/logoshense</title>
    <desc>Created with Sketch.</desc>
    <g id="icon/logoshense" stroke="none" stroke-width="1" fill="none" fill-rule="evenodd">
        <g id="Page-1" fill="#ffffff">
            <polygon id="Fill-1" points="139.302056 9.36092885 149.818333 9.36092885 149.818333 0.256086957 139.302056 0.256086957"></polygon>
            <path d="M139.301785,27.521917 C142.281171,27.2528458 144.91024,26.0914822 146.815638,24.3691502 C148.67767,22.6689526 149.818062,20.431996 149.818062,17.9723123 L149.818062,12.0223123 L139.301785,12.0223123 L139.301785,27.521917 Z" id="Fill-2"></path>
            <path d="M126.17663,0.256916996 L126.17663,17.9720356 C126.17663,20.4317194 127.315668,22.6693676 129.179732,24.3695652 C131.064124,26.0912055 133.714199,27.2532609 136.715268,27.5216403 L136.715268,0.256916996 L126.17663,0.256916996 Z" id="Fill-5"></path>
            <polygon id="Fill-7" points="39.4666007 12.5848715 43.2211558 12.5848715 43.2211558 2.19831028 47.2968909 2.19831028 47.2968909 0.256709486 35.4416852 0.256709486 35.4416852 2.19831028 39.4666007 2.19831028"></polygon>
            <path d="M8.42162757,12.5848715 C12.9174718,12.5848715 12.9174718,9.83813241 12.9174718,8.65186759 L12.9174718,0.256709486 L9.18866535,0.256709486 L9.18866535,8.90502964 C9.18866535,9.78694664 9.01452338,10.6190613 7.97644752,10.6190613 L4.91439477,10.6190613 C3.90206753,10.6190613 3.72928075,9.78694664 3.72928075,8.90502964 L3.72928075,0.256709486 L-0.000203278562,0.256709486 L-0.000203278562,8.65186759 C-0.000203278562,9.83813241 -0.000203278562,12.5848715 4.49564093,12.5848715 L8.42162757,12.5848715 Z" id="Fill-10"></path>
            <polygon id="Fill-13" points="30.1313037 12.5849407 33.7618589 12.5849407 33.7618589 0.256778656 30.1313037 0.256778656"></polygon>
            <path d="M71.3692061,8.90482213 C71.3692061,9.78673913 71.1964193,10.6188538 70.1840921,10.6188538 L65.9118543,10.6188538 L65.9118543,2.19879447 L70.1840921,2.19879447 C71.1964193,2.19879447 71.3692061,3.05511858 71.3692061,3.93703557 L71.3692061,8.90482213 Z M70.6279169,0.257193676 L62.187791,0.257193676 L62.187791,12.584664 L70.6279169,12.584664 C75.0973349,12.584664 75.1217283,9.8379249 75.1217283,8.65235178 L75.1217283,4.18950593 C75.1217283,3.00462451 75.0973349,0.257193676 70.6279169,0.257193676 L70.6279169,0.257193676 Z" id="Fill-15"></path>
            <polygon id="Fill-16" points="59.9162208 12.5848715 59.9162208 10.6190613 52.9275038 10.6190613 52.9275038 7.39159091 59.1749317 7.39159091 59.1749317 5.42578063 52.9275038 5.42578063 52.9275038 2.19831028 59.5950407 2.19831028 59.5950407 0.256709486 49.1729488 0.256709486 49.1729488 12.5848715"></polygon>
            <polygon id="Fill-17" points="19.8818631 0.256916996 24.7469967 8.24881423 24.7469967 0.256916996 27.6362627 0.256916996 27.6362627 12.5850791 23.1668447 12.5850791 18.1770336 4.36699605 18.1770336 12.5850791 15.28709 12.5850791 15.28709 0.256916996"></polygon>
            <path d="M66.7084352,17.567253 C62.2193669,17.567253 62.2193669,20.3160672 62.2193669,21.5016403 L62.2193669,25.9727866 C62.2193669,27.1562846 62.2193669,29.9313834 66.7084352,29.9313834 L74.8822662,29.9313834 L74.8822662,22.517747 L68.6843028,22.517747 L68.6843028,24.4856324 L71.1534598,24.4856324 L71.1534598,27.9648814 L67.1522601,27.9648814 C66.1155394,27.9648814 65.9678236,27.1071739 65.9678236,26.2245652 L65.9678236,21.2477866 C65.9678236,20.3665613 66.1155394,19.5088538 67.1522601,19.5088538 L74.8822662,19.5088538 L74.8822662,17.567253 L66.7084352,17.567253 Z" id="Fill-18"></path>
            <path d="M103.007414,17.567253 C98.5183456,17.567253 98.5183456,20.3160672 98.5183456,21.5016403 L98.5183456,25.9727866 C98.5183456,27.1562846 98.5183456,29.9313834 103.007414,29.9313834 L111.181245,29.9313834 L111.181245,22.517747 L104.983281,22.517747 L104.983281,24.4856324 L107.451761,24.4856324 L107.451761,27.9648814 L103.450561,27.9648814 C102.414518,27.9648814 102.266125,27.1071739 102.266125,26.2245652 L102.266125,21.2477866 C102.266125,20.3665613 102.414518,19.5088538 103.450561,19.5088538 L111.181245,19.5088538 L111.181245,17.567253 L103.007414,17.567253 Z" id="Fill-19"></path>
            <polygon id="Fill-20" points="52.0448006 17.5774209 47.4513826 29.9311759 50.2918618 29.9311759 53.6757722 20.7537055 57.1572564 29.9311759 61.6517454 29.9311759 57.0576499 17.5774209"></polygon>
            <polygon id="Fill-21" points="30.1629474 17.5774209 34.6811523 17.5774209 38.0169535 25.4427372 41.6475086 17.5774209 46.0925332 17.5774209 46.0925332 29.9311759 42.4369071 29.9311759 42.4369071 21.7130929 38.6586362 29.9311759 36.1156214 29.9311759 32.6571754 21.6875 32.6571754 29.9311759 30.1629474 29.9311759"></polygon>
            <polygon id="Fill-22" points="88.5178534 17.5774209 93.4039924 25.5949111 93.4039924 17.5774209 96.2959688 17.5774209 96.2959688 29.9311759 91.8238404 29.9311759 86.8109911 21.6875 86.8109911 29.9311759 83.9461185 29.9311759 83.9461185 17.5774209"></polygon>
            <polygon id="Fill-23" points="24.03769 29.9313834 27.6682452 29.9313834 27.6682452 17.5776285 24.03769 17.5776285"></polygon>
            <polygon id="Fill-24" points="77.525023 29.9313834 81.1311847 29.9313834 81.1311847 17.5776285 77.525023 17.5776285"></polygon>
            <polygon id="Fill-25" points="94.3382607 6.33252964 91.3737817 6.33252964 91.3737817 3.05525692 94.26237 3.05525692 94.26237 1.97067194 93.6701518 1.97067194 94.1404029 0.256640316 92.0656064 0.256640316 91.6197487 1.97067194 89.3010179 1.97067194 88.832122 0.256640316 86.9050413 0.256640316 87.3495437 1.97067194 86.5831835 1.97067194 86.5831835 3.05525692 89.4494113 3.05525692 89.4494113 6.33252964 86.5086481 6.33252964 86.5086481 7.44201581 88.7555538 7.44201581 86.4347902 12.5848024 88.5102643 12.5848024 90.3350282 8.62689723 92.1882511 12.5848024 94.26237 12.5848024 91.9917485 7.44201581 94.3382607 7.44201581"></polygon>
            <path d="M81.9890203,3.78652174 L83.9662431,3.78652174 L83.9662431,1.34067194 L81.9890203,1.34067194 L81.9890203,3.78652174 Z M81.9890203,7.06448617 L83.9662431,7.06448617 L83.9662431,4.74452569 L81.9890203,4.74452569 L81.9890203,7.06448617 Z M83.9662431,10.4171542 L81.9890203,10.6689328 L81.9890203,8.02249012 L83.9662431,8.02249012 L83.9662431,10.4171542 Z M79.6187922,0.256778656 L79.6187922,1.34067194 L80.1120815,1.34067194 L80.1120815,10.9214032 L79.6675791,10.9712055 L79.6675791,12.1062846 L83.9662431,11.5508498 L83.9662431,12.5849407 L85.8404714,12.5849407 L85.8404714,1.34067194 L86.2605805,1.34067194 L86.2605805,0.256778656 L79.6187922,0.256778656 Z" id="Fill-26"></path>
            <polygon id="Fill-27" points="96.5361763 12.5848715 98.5859018 12.5848715 99.2526555 10.4675791 97.1771814 10.4675791"></polygon>
            <polygon id="Fill-28" points="103.329 10.4679249 104.020148 12.5852174 106.019731 12.5852174 105.403119 10.4679249"></polygon>
            <polygon id="Fill-29" points="106.760004 1.9726087 106.760004 4.09059289 111.180635 2.37448617 111.180635 0.257193676"></polygon>
            <polygon id="Fill-30" points="106.760004 8.36916996 111.180635 6.65444664 111.180635 4.48596838 106.760004 6.22628458"></polygon>
            <path d="M98.9302557,3.6848419 L103.671389,3.6848419 L103.671389,2.85411067 L98.9302557,2.85411067 L98.9302557,3.6848419 Z M98.9065398,1.97150198 L103.671389,1.97150198 L103.671389,1.16498024 L98.9065398,1.16498024 L98.9065398,1.97150198 Z M102.265379,4.54324111 L105.870186,4.54324111 L105.871541,0.256778656 L96.7070658,0.256778656 L96.7070658,4.54324111 L100.288156,4.54324111 L100.288156,5.40025692 L96.5363118,5.40025692 L96.5363118,6.43296443 L106.019257,6.43296443 L106.019257,5.40025692 L102.265379,5.40025692 L102.265379,4.54324111 Z" id="Fill-31"></path>
            <polygon id="Fill-32" points="106.760004 12.5848715 111.180635 10.8957411 111.180635 8.77844862 106.760004 10.5180731"></polygon>
            <path d="M96.7072013,7.08980237 L96.7072013,10.0143083 L100.290325,10.0143083 L100.290325,12.584664 L102.259416,12.584664 L102.259416,10.0143083 L105.869644,10.0143083 L105.869644,7.08980237 L96.7072013,7.08980237 Z M98.9303912,9.03140316 L103.671525,9.03140316 L103.671525,8.02290514 L98.9303912,8.02290514 L98.9303912,9.03140316 Z" id="Fill-33"></path>
        </g>
    </g>
</svg>