<?xml version="1.0" encoding="UTF-8"?>
<svg width="125px" height="125px" viewBox="0 0 125 125" version="1.1" xmlns="http://www.w3.org/2000/svg" xmlns:xlink="http://www.w3.org/1999/xlink">
    <!-- Generator: Sketch 53.2 (72643) - https://sketchapp.com -->
    <title>icon/yuyuedengji</title>
    <desc>Created with Sketch.</desc>
    <defs>
        <path d="M22.4800885,60.6412289 C24.4182435,60.6412289 44.960177,34.6803781 44.960177,22.3415054 C44.960177,10.0026327 34.8954986,0 22.4800885,0 C10.0646785,0 0,10.0026327 0,22.3415054 C0,34.6803781 20.5419336,60.6412289 22.4800885,60.6412289 Z" id="path-1"></path>
        <filter x="-14.5%" y="-10.7%" width="137.8%" height="128.0%" filterUnits="objectBoundingBox" id="filter-2">
            <feOffset dx="2" dy="2" in="SourceAlpha" result="shadowOffsetOuter1"></feOffset>
            <feGaussianBlur stdDeviation="2.5" in="shadowOffsetOuter1" result="shadowBlurOuter1"></feGaussianBlur>
            <feColorMatrix values="0 0 0 0 0   0 0 0 0 0   0 0 0 0 0  0 0 0 0.122056159 0" type="matrix" in="shadowBlurOuter1"></feColorMatrix>
        </filter>
    </defs>
    <g id="icon/yuyuedengji" stroke="none" stroke-width="1" fill="none" fill-rule="evenodd">
        <g>
            <rect id="Rectangle-61-Copy-8" x="0" y="0" width="125" height="125"></rect>
            <g id="Group-4" transform="translate(13.000000, 0.000000)">
                <path d="M2.17391304,0 L53.3076923,0 L99,34.7826087 L99,122.826087 C99,124.026706 98.026706,125 96.826087,125 L2.17391304,125 C0.973294022,125 4.14795982e-15,124.026706 -3.99680289e-15,122.826087 L0,2.17391304 C-1.47033424e-16,0.973294022 0.973294022,3.32917461e-15 2.17391304,3.10862447e-15 Z" id="Rectangle-25-Copy" fill="#E6E6E6"></path>
                <path d="M53.3076923,0 L99,34.7826087 L55.4816054,34.7826087 C54.2809863,34.7826087 53.3076923,33.8093147 53.3076923,32.6086957 L53.3076923,0 Z" id="Rectangle-5" fill="#CCCCCC"></path>
                <polygon id="Path-3-Copy-2" fill="#9ECD68" points="13.0862069 22.9665072 17.9630542 25.8373206 30.1551724 13.6363636 31.862069 15.3110048 17.9630542 31.8181818 11.3793103 24.8803828"></polygon>
                <polygon id="Path-3" fill="#9ECD68" points="13.0862069 51.3755981 17.9630542 54.2464115 30.1551724 42.0454545 31.862069 43.7200957 17.9630542 60.2272727 11.3793103 53.2894737"></polygon>
                <rect id="Rectangle-25" fill="#D4D4D4" x="41.3406593" y="48.9130435" width="44.6043956" height="7.95454545"></rect>
                <rect id="Rectangle-25-Copy-2" fill="#D4D4D4" x="10.8791209" y="75" width="75.0659341" height="7.95454545"></rect>
                <rect id="Rectangle-25-Copy-3" fill="#879CAB" x="11.3793103" y="89.7727273" width="75.0659341" height="7.95454545"></rect>
                <rect id="Rectangle-25-Copy-4" fill="#879CAB" x="11.3793103" y="104.545455" width="44.6043956" height="7.95454545"></rect>
                <path d="M63.0989011,109.299762 L78.0799285,125 L96.826087,125 C98.026706,125 99,124.026706 99,122.826087 L99,74.8327707 L78.0799285,54.239169 L63.0989011,109.299762 Z" id="Path-4" fill-opacity="0.0500000007" fill="#000000"></path>
                <g id="Group-3" transform="translate(41.340659, 48.913043)">
                    <g id="Oval-3">
                        <use fill="black" fill-opacity="1" filter="url(#filter-2)" xlink:href="#path-1"></use>
                        <use fill="#697985" fill-rule="evenodd" xlink:href="#path-1"></use>
                    </g>
                    <ellipse id="Oval-4" fill="#FFFFFF" cx="22.3600655" cy="20.2898551" rx="9.72176759" ry="9.66183575"></ellipse>
                </g>
            </g>
        </g>
    </g>
</svg>